<svg width="42" height="43" viewBox="0 0 42 43" fill="none" xmlns="http://www.w3.org/2000/svg">
<path d="M5.99219 42.1406C4.59355 42.1406 3.39666 41.6695 2.40152 40.7271C1.40467 39.7832 0.90625 38.649 0.90625 37.3246V15.6522C0.90625 14.8897 1.0868 14.1673 1.4479 13.485C1.80731 12.8027 2.30488 12.2408 2.94063 11.7994L18.1984 0.963215C18.6646 0.642143 19.1521 0.401339 19.6606 0.240803C20.1692 0.0802676 20.699 0 21.25 0C21.801 0 22.3308 0.0802676 22.8394 0.240803C23.3479 0.401339 23.8354 0.642143 24.3016 0.963215L39.5594 11.7994C40.1951 12.2408 40.6935 12.8027 41.0546 13.485C41.414 14.1673 41.5938 14.8897 41.5938 15.6522V37.3246C41.5938 38.649 41.0962 39.7832 40.101 40.7271C39.1042 41.6695 37.9064 42.1406 36.5078 42.1406H26.3359V25.2844H16.1641V42.1406H5.99219Z" fill="#16002B"/>
</svg>
