<?xml version="1.0" encoding="UTF-8" standalone="no"?>
<svg
   width="480"
   height="538"
   viewBox="0 0 480 538"
   fill="none"
   version="1.1"
   id="svg229"
   sodipodi:docname="artist.svg"
   inkscape:version="1.2.2 (b0a84865, 2022-12-01)"
   xmlns:inkscape="http://www.inkscape.org/namespaces/inkscape"
   xmlns:sodipodi="http://sodipodi.sourceforge.net/DTD/sodipodi-0.dtd"
   xmlns="http://www.w3.org/2000/svg"
   xmlns:svg="http://www.w3.org/2000/svg">
  <sodipodi:namedview
     id="namedview231"
     pagecolor="#ffffff"
     bordercolor="#999999"
     borderopacity="1"
     inkscape:showpageshadow="0"
     inkscape:pageopacity="0"
     inkscape:pagecheckerboard="0"
     inkscape:deskcolor="#d1d1d1"
     showgrid="false"
     inkscape:zoom="0.43866171"
     inkscape:cx="240.50424"
     inkscape:cy="270.13983"
     inkscape:window-width="1280"
     inkscape:window-height="771"
     inkscape:window-x="0"
     inkscape:window-y="33"
     inkscape:window-maximized="0"
     inkscape:current-layer="svg229" />
  <path
     d="M181.604 43L37 446.791"
     stroke="#7139FF"
     stroke-width="10"
     stroke-linecap="round"
     id="path134" />
  <path
     d="M157.919 43L278.308 446.6"
     stroke="#7139FF"
     stroke-width="10"
     stroke-linecap="round"
     id="path136" />
  <rect
     x="51.999"
     y="306"
     width="227"
     height="22"
     fill="#7139FF"
     id="rect138" />
  <rect
     x="75.999"
     y="87"
     width="174"
     height="219"
     rx="20"
     fill="url(#paint0_linear_893_3116)"
     id="rect140" />
  <rect
     x="85.8837"
     y="101.221"
     width="72.0362"
     height="80.9174"
     rx="10"
     fill="#A5BAFF"
     id="rect142" />
  <rect
     x="167.789"
     y="101.221"
     width="72.0362"
     height="80.9174"
     rx="10"
     fill="#A5BAFF"
     id="rect144" />
  <rect
     x="85.8837"
     y="188.059"
     width="72.0362"
     height="80.9174"
     rx="10"
     fill="#A5BAFF"
     id="rect146" />
  <rect
     x="167.789"
     y="188.059"
     width="72.0362"
     height="80.9174"
     rx="10"
     fill="url(#paint1_linear_893_3116)"
     id="rect148" />
  <g
     filter="url(#filter0_d_893_3116)"
     id="g152">
    <path
       d="M205.759 257.006L233.885 285.132"
       stroke="#6A8DFF"
       stroke-width="10"
       stroke-linecap="round"
       id="path150" />
  </g>
  <path
     d="M192.195 235.582L195.601 239.345C196.661 240.516 197.871 241.542 199.198 242.397L203.6 245.233L193.204 250.488L192.195 235.582Z"
     fill="#7139FF"
     id="path154" />
  <circle
     cx="199.643"
     cy="250.316"
     r="6.72591"
     transform="rotate(-26.8169 199.643 250.316)"
     fill="#7139FF"
     id="circle156" />
  <circle
     cx="53.8073"
     cy="53.8073"
     r="53.8073"
     transform="matrix(-1 0 0 1 409.982 188.353)"
     fill="#E5E0FF"
     id="circle158" />
  <path
     d="M369.626 234.823C369.626 229.233 365.735 226.837 361.066 227.635"
     stroke="#7139FF"
     stroke-width="2"
     stroke-linecap="round"
     id="path160" />
  <path
     d="M312.2 220.747C310.712 217.492 307.573 217.241 304.784 219.078"
     stroke="#7139FF"
     stroke-width="2"
     stroke-linecap="round"
     id="path162" />
  <path
     d="M409.982 334.489C409.982 300.382 382.332 272.733 348.225 272.733V272.733C314.119 272.733 286.469 300.382 286.469 334.489V432.932H409.982V334.489Z"
     fill="#E5E0FF"
     id="path164" />
  <path
     d="M327.987 338.987C305.814 331.304 268.399 334.075 251.077 298.739"
     stroke="#E5E0FF"
     stroke-width="33"
     stroke-linecap="round"
     id="path166" />
  <path
     d="M426.928 381.373C425.232 358.551 413.361 311.347 379.443 305.111"
     stroke="#E5E0FF"
     stroke-width="33"
     stroke-linecap="round"
     id="path168" />
  <path
     d="M409.982 426.817H348.837V475.299C348.837 486.345 357.791 495.299 368.837 495.299H389.982C401.027 495.299 409.982 486.345 409.982 475.299V426.817Z"
     fill="#E5E0FF"
     id="path170" />
  <path
     d="M348.837 426.817H286.469V475.299C286.469 486.345 295.424 495.299 306.469 495.299H328.837C339.883 495.299 348.837 486.345 348.837 475.299V426.817Z"
     fill="#E5E0FF"
     id="path172" />
  <ellipse
     cx="7.40179"
     cy="9.05782"
     rx="7.40179"
     ry="9.05782"
     transform="matrix(-0.958646 -0.284601 -0.284601 0.958646 364.515 235.368)"
     fill="#7139FF"
     id="ellipse174" />
  <ellipse
     cx="3.73057"
     cy="6.25967"
     rx="3.73057"
     ry="6.25967"
     transform="matrix(-0.955302 -0.295631 -0.295631 0.955302 310.708 227.628)"
     fill="#7139FF"
     id="ellipse176" />
  <path
     d="M412.427 401.136L396.53 341.215"
     stroke="#ABA5FF"
     stroke-width="2"
     stroke-linecap="round"
     id="path178" />
  <path
     d="M347.799 475.42L348.778 440.144"
     stroke="#ABA5FF"
     stroke-width="2"
     stroke-linecap="round"
     id="path180" />
  <path
     d="M420.376 232.989C415.673 247.084 391.991 230.058 364.122 220.76C336.253 211.462 313.56 203.671 318.262 189.576C322.965 175.482 356.431 169.884 384.3 179.182C412.17 188.48 425.078 218.894 420.376 232.989Z"
     fill="#A5BAFF"
     id="path182" />
  <path
     d="M396.529 169.179C391.787 167.024 387.329 174.21 385.082 179.434C384.587 180.587 385.014 181.908 386.041 182.627C387.884 183.917 391.356 182.754 392.7 180.951C396.046 176.459 401.384 171.386 396.529 169.179Z"
     fill="#A5BAFF"
     id="path184" />
  <ellipse
     cx="320.554"
     cy="247.657"
     rx="5.80844"
     ry="5.2804"
     transform="rotate(14.0877 320.554 247.657)"
     fill="#642FEA"
     id="ellipse186" />
  <path
     d="M313.098 244.184C314.703 243.29 316.532 242.668 318.254 242.283C321.456 241.568 323.719 244.33 323.516 247.605C323.328 250.647 321.042 253.29 318.105 252.477C312.314 250.875 306.452 245.525 304.014 242.417C303.814 242.162 304.311 242.082 304.571 242.276C305.894 243.26 309.962 245.931 313.098 244.184Z"
     fill="#642FEA"
     id="path188" />
  <ellipse
     cx="5.80844"
     cy="5.2804"
     rx="5.80844"
     ry="5.2804"
     transform="matrix(-0.969924 -0.243406 -0.243406 0.969924 336.692 246.263)"
     fill="#642FEA"
     id="ellipse190" />
  <path
     d="M337.459 250.299C336.608 248.887 335.492 247.593 334.34 246.512C331.906 244.228 328.554 245.603 327.193 248.651C325.972 251.383 326.704 254.745 329.631 255.37C335.156 256.548 342.386 254.525 345.809 252.908C346.096 252.772 345.705 252.477 345.392 252.53C343.823 252.794 339.251 253.273 337.459 250.299Z"
     fill="#642FEA"
     id="path192" />
  <path
     d="M363.62 306.249L328.435 303.386C323.608 302.994 319.784 299.149 319.417 294.32C318.893 287.423 311.538 283.208 306.081 287.457C295.325 295.832 291.968 304.781 291.968 308.841C291.325 322.341 288.506 346.273 287.218 350.568C286.299 353.634 284.97 399.59 284.237 429.509C284.101 435.051 288.508 439.624 294.052 439.72L413.158 441.794C419.349 441.902 424.149 436.414 423.219 430.292L418.758 400.958C418.627 400.096 418.384 399.27 418.088 398.45C415.078 390.114 407.143 358.551 403.238 342.511C403.15 342.148 403.044 341.802 402.92 341.449C402.721 340.881 402.421 339.996 402.316 339.523C401.181 334.409 400.251 310.009 402.505 295.542C402.801 293.639 401.773 291.657 400.463 290.246C397.984 287.576 390.296 285.568 386.931 286.962C384.879 287.813 382.532 288.441 379.658 288.813C375.921 289.296 372.848 292.259 372.848 296.027V297.741C372.848 302.728 368.591 306.654 363.62 306.249Z"
     fill="#A5BAFF"
     id="path194" />
  <path
     d="M303.999 374H389.999V391C389.999 402.046 381.045 411 369.999 411H323.999C312.953 411 303.999 402.046 303.999 391V374Z"
     fill="#6A8DFF"
     id="path196" />
  <path
     d="M308.102 378.23C307.289 388.689 310.909 409.484 331.9 408.991C352.89 408.499 364.239 408.786 367.29 408.991C374.612 408.376 388.769 401.117 386.816 377"
     stroke="#A5BAFF"
     stroke-dasharray="2 2"
     id="path198" />
  <defs
     id="defs227">
    <filter
       id="filter0_d_893_3116"
       x="196.759"
       y="252.006"
       width="46.1265"
       height="46.1265"
       filterUnits="userSpaceOnUse"
       color-interpolation-filters="sRGB">
      <feFlood
         flood-opacity="0"
         result="BackgroundImageFix"
         id="feFlood200" />
      <feColorMatrix
         in="SourceAlpha"
         type="matrix"
         values="0 0 0 0 0 0 0 0 0 0 0 0 0 0 0 0 0 0 127 0"
         result="hardAlpha"
         id="feColorMatrix202" />
      <feOffset
         dy="4"
         id="feOffset204" />
      <feGaussianBlur
         stdDeviation="2"
         id="feGaussianBlur206" />
      <feComposite
         in2="hardAlpha"
         operator="out"
         id="feComposite208" />
      <feColorMatrix
         type="matrix"
         values="0 0 0 0 0 0 0 0 0 0 0 0 0 0 0 0 0 0 0.25 0"
         id="feColorMatrix210" />
      <feBlend
         mode="normal"
         in2="BackgroundImageFix"
         result="effect1_dropShadow_893_3116"
         id="feBlend212" />
      <feBlend
         mode="normal"
         in="SourceGraphic"
         in2="effect1_dropShadow_893_3116"
         result="shape"
         id="feBlend214" />
    </filter>
    <linearGradient
       id="paint0_linear_893_3116"
       x1="54.0493"
       y1="96.7877"
       x2="242.614"
       y2="314.767"
       gradientUnits="userSpaceOnUse">
      <stop
         offset="0.625"
         stop-color="#E5E0FF"
         id="stop217" />
      <stop
         offset="1"
         stop-color="#C3ACFF"
         id="stop219" />
    </linearGradient>
    <linearGradient
       id="paint1_linear_893_3116"
       x1="180.077"
       y1="188.059"
       x2="227.537"
       y2="268.976"
       gradientUnits="userSpaceOnUse">
      <stop
         offset="0.4"
         stop-color="#A5BAFF"
         id="stop222" />
      <stop
         offset="0.957608"
         stop-color="#ABA5FF"
         id="stop224" />
    </linearGradient>
  </defs>
</svg>
