<svg width="648" height="538" viewBox="0 0 648 538" fill="none" xmlns="http://www.w3.org/2000/svg">
<rect width="648" height="538" fill="white"/>
<rect x="315.844" y="159.369" width="222.898" height="317.554" rx="20" transform="rotate(-14.6678 315.844 159.369)" fill="url(#paint0_linear_893_3155)"/>
<path d="M600.126 416.414C603.722 410.676 603.056 401.22 602.273 397.21L572.323 405.63L579.747 433.58L600.126 416.414Z" fill="#CFBBFF"/>
<path d="M508.048 137.256L522.461 108.642C532.933 109.813 536.954 121.874 537.655 127.759L607.595 395.82L591.74 414.539L508.048 137.256Z" fill="#CFBBFF"/>
<rect x="316.807" y="176.37" width="207.068" height="317.554" rx="20" transform="rotate(-14.6678 316.807 176.37)" fill="url(#paint1_linear_893_3155)"/>
<path d="M45.6964 327.99L47.2418 341.887L48.6229 347.979L54.183 335.288L45.6964 327.99Z" fill="#C3ACFF"/>
<path d="M392.49 214.045L390.359 196.905L389.159 190.766L383.237 203.292L392.49 214.045Z" fill="#C3ACFF"/>
<rect x="1.42046" y="10.6525" width="194.195" height="317.93" rx="12.5" transform="matrix(0.786214 0.617955 -0.596819 0.802376 243.779 82.1023)" fill="#C3ACFF" stroke="#C3ACFF" stroke-width="15"/>
<rect x="1.41757" y="10.6139" width="193.016" height="318.141" rx="12.5" transform="matrix(0.788612 0.614891 -0.599602 0.800298 241.518 63.1253)" fill="#E5E0FF" stroke="#E5E0FF" stroke-width="15"/>
<path d="M226.106 91.2643C232.789 82.4698 245.308 80.7951 254.068 87.5238L372.719 178.664C381.479 185.392 383.162 197.976 376.479 206.771L231.493 397.562C224.81 406.356 212.291 408.031 203.531 401.303L84.8803 310.163C76.1206 303.434 74.4372 290.85 81.1203 282.055L226.106 91.2643Z" fill="url(#paint2_linear_893_3155)"/>
<ellipse cx="128.67" cy="371.677" rx="15.1183" ry="15.915" transform="rotate(26.3796 128.67 371.677)" fill="#C3ACFF"/>
<rect x="0.141757" y="1.06139" width="13.6481" height="14.3867" rx="3.25" transform="matrix(0.788612 0.614891 -0.599602 0.800298 127.759 360.766)" stroke="#E5E0FF" stroke-width="1.5"/>
<path d="M326.289 103.313C330.13 104.694 335.629 107.027 340.271 110.995C344.645 114.733 346.338 118.409 348.216 121.732" stroke="#6A8DFF" stroke-width="7" stroke-linecap="round"/>
<path d="M326.752 82.739C334.821 83.6637 343.826 87.2068 353.268 95.2759C362.043 102.776 366.751 110.389 368.92 117.544" stroke="#6A8DFF" stroke-width="7" stroke-linecap="round"/>
<path d="M326.573 63.5825C339.31 63.7461 353.686 68.2371 368.565 80.9534C381.394 91.9188 387.905 103.281 390.57 114.03" stroke="#6A8DFF" stroke-width="7" stroke-linecap="round"/>
<defs>
<linearGradient id="paint0_linear_893_3155" x1="536.39" y1="216.808" x2="303.768" y2="233.818" gradientUnits="userSpaceOnUse">
<stop stop-color="#C3ACFF"/>
<stop offset="0.699485" stop-color="#8555FF"/>
</linearGradient>
<linearGradient id="paint1_linear_893_3155" x1="410.676" y1="277.162" x2="314.326" y2="219.178" gradientUnits="userSpaceOnUse">
<stop stop-color="#C3ACFF"/>
<stop offset="1" stop-color="#8555FF"/>
</linearGradient>
<linearGradient id="paint2_linear_893_3155" x1="13.0273" y1="323.764" x2="433.831" y2="182.981" gradientUnits="userSpaceOnUse">
<stop stop-color="#A5BAFF"/>
<stop offset="1" stop-color="#8555FF"/>
</linearGradient>
</defs>
</svg>
