<?xml version="1.0" encoding="UTF-8" standalone="no"?>
<svg
   version="1.1"
   viewBox="0 0 1396.01 40"
   id="svg18"
   sodipodi:docname="squiggle.svg"
   width="1396.01"
   height="40"
   inkscape:version="1.2.2 (b0a84865, 2022-12-01)"
   xmlns:inkscape="http://www.inkscape.org/namespaces/inkscape"
   xmlns:sodipodi="http://sodipodi.sourceforge.net/DTD/sodipodi-0.dtd"
   xmlns="http://www.w3.org/2000/svg"
   xmlns:svg="http://www.w3.org/2000/svg">
  <sodipodi:namedview
     id="namedview20"
     pagecolor="#ffffff"
     bordercolor="#999999"
     borderopacity="1"
     inkscape:showpageshadow="0"
     inkscape:pageopacity="0"
     inkscape:pagecheckerboard="0"
     inkscape:deskcolor="#d1d1d1"
     showgrid="false"
     inkscape:zoom="0.72171254"
     inkscape:cx="698.33898"
     inkscape:cy="20.091102"
     inkscape:window-width="1280"
     inkscape:window-height="771"
     inkscape:window-x="0"
     inkscape:window-y="33"
     inkscape:window-maximized="0"
     inkscape:current-layer="svg18" />
  <defs
     id="defs11">
    <style
       id="style9">
      .cls-1 {
        fill: none;
        stroke: #7139ff;
        stroke-linecap: round;
        stroke-miterlimit: 10;
        stroke-width: 12px;
      }
    </style>
  </defs>
  <!-- Generator: Adobe Illustrator 28.7.1, SVG Export Plug-In . SVG Version: 1.2.0 Build 142)  -->
  <g
     id="g16"
     transform="translate(-58,-143.5)">
    <g
       id="Layer_1">
      <path
         class="cls-1"
         d="m 64,149.5 c 43.25,0 43.25,28 86.5,28 43.25,0 43.25,-28 86.5,-28 43.25,0 43.25,28 86.5,28 43.25,0 43.25,-28 86.5,-28 43.25,0 43.25,28 86.5,28 43.25,0 43.25,-28 86.49,-28 43.24,0 43.25,28 86.5,28 43.25,0 43.25,-28 86.5,-28 43.25,0 43.25,28 86.5,28 43.25,0 43.25,-28 86.5,-28 43.25,0 43.25,28 86.5,28 43.25,0 43.25,-28 86.5,-28 43.25,0 43.25,28 86.5,28 43.25,0 43.25,-28 86.5,-28 43.25,0 43.25,28 86.51,28 43.26,0 43.25,-28 86.51,-28"
         id="path13" />
    </g>
  </g>
</svg>
