<?xml version="1.0" encoding="UTF-8" standalone="no"?>
<!-- Created with Inkscape (http://www.inkscape.org/) -->

<svg
   width="3.2746971mm"
   height="3.2746952mm"
   viewBox="0 0 3.2746971 3.2746951"
   version="1.1"
   id="svg5"
   sodipodi:docname="arrow.svg"
   inkscape:version="1.2.2 (b0a84865, 2022-12-01)"
   xmlns:inkscape="http://www.inkscape.org/namespaces/inkscape"
   xmlns:sodipodi="http://sodipodi.sourceforge.net/DTD/sodipodi-0.dtd"
   xmlns="http://www.w3.org/2000/svg"
   xmlns:svg="http://www.w3.org/2000/svg">
  <sodipodi:namedview
     id="namedview7"
     pagecolor="#ffffff"
     bordercolor="#999999"
     borderopacity="1"
     inkscape:showpageshadow="0"
     inkscape:pageopacity="0"
     inkscape:pagecheckerboard="0"
     inkscape:deskcolor="#d1d1d1"
     inkscape:document-units="mm"
     showgrid="false"
     inkscape:zoom="42.890382"
     inkscape:cx="6.6215311"
     inkscape:cy="5.630633"
     inkscape:window-width="1280"
     inkscape:window-height="771"
     inkscape:window-x="0"
     inkscape:window-y="33"
     inkscape:window-maximized="0"
     inkscape:current-layer="layer1" />
  <defs
     id="defs2" />
  <g
     inkscape:label="Layer 1"
     inkscape:groupmode="layer"
     id="layer1"
     transform="translate(-29.639238,-287.42142)">
    <g
       id="rect788"
       style="fill:#ffffff">
      <g
         id="g2411"
         style="fill:#ffffff">
        <path
           style="color:#000000;fill:#ffffff;stroke-linecap:round;-inkscape-stroke:none"
           d="m 32.914062,287.41992 -2.371093,0.004 a 0.24999949,0.24999949 0 0 0 -0.248047,0.25 0.24999949,0.24999949 0 0 0 0.25,0.25 l 1.871094,-0.004 0.0039,1.8711 a 0.24999949,0.24999949 0 0 0 0.25,0.25 0.24999949,0.24999949 0 0 0 0.25,-0.25 z"
           id="path3162" />
      </g>
      <path
         style="color:#000000;fill:#ffffff;stroke-width:0.499999;stroke-linecap:round;stroke-linejoin:round;stroke-miterlimit:0;-inkscape-stroke:none;paint-order:markers fill stroke"
         d="m 32.577138,287.75838 -2.662898,2.67256 z"
         id="path3159" />
      <path
         style="color:#000000;fill:#ffffff;stroke-linecap:round;stroke-linejoin:round;stroke-miterlimit:0;-inkscape-stroke:none;paint-order:markers fill stroke"
         d="m 32.640625,287.51953 a 0.25002449,0.25002449 0 0 0 -0.240234,0.0625 l -2.664063,2.67188 a 0.25066478,0.25066478 0 0 0 0.355469,0.35351 l 2.662109,-2.67187 a 0.25002449,0.25002449 0 0 0 0.0625,-0.24024 0.25002449,0.25002449 0 0 0 -0.175781,-0.17578 z"
         id="path3156" />
    </g>
  </g>
</svg>
