<svg width="57" height="57" viewBox="0 0 57 57" fill="none" xmlns="http://www.w3.org/2000/svg">
<path d="M24.51 33.63L18.3113 27.4312C17.7887 26.9087 17.1475 26.6475 16.3875 26.6475C15.6275 26.6475 14.9625 26.9325 14.3925 27.5025C13.87 28.025 13.6087 28.69 13.6087 29.4975C13.6087 30.305 13.87 30.97 14.3925 31.4925L22.515 39.615C23.0375 40.1375 23.7025 40.3987 24.51 40.3987C25.3175 40.3987 25.9825 40.1375 26.505 39.615L42.6787 23.4412C43.2012 22.9188 43.4625 22.2775 43.4625 21.5175C43.4625 20.7575 43.1775 20.0925 42.6075 19.5225C42.085 19 41.42 18.7387 40.6125 18.7387C39.805 18.7387 39.14 19 38.6175 19.5225L24.51 33.63ZM28.5 57C24.5575 57 20.8525 56.2514 17.385 54.7542C13.9175 53.2589 10.9012 51.2288 8.33625 48.6637C5.77125 46.0988 3.7411 43.0825 2.2458 39.615C0.7486 36.1475 0 32.4425 0 28.5C0 24.5575 0.7486 20.8525 2.2458 17.385C3.7411 13.9175 5.77125 10.9012 8.33625 8.33625C10.9012 5.77125 13.9175 3.74015 17.385 2.24295C20.8525 0.74765 24.5575 0 28.5 0C32.4425 0 36.1475 0.74765 39.615 2.24295C43.0825 3.74015 46.0988 5.77125 48.6637 8.33625C51.2288 10.9012 53.2589 13.9175 54.7542 17.385C56.2514 20.8525 57 24.5575 57 28.5C57 32.4425 56.2514 36.1475 54.7542 39.615C53.2589 43.0825 51.2288 46.0988 48.6637 48.6637C46.0988 51.2288 43.0825 53.2589 39.615 54.7542C36.1475 56.2514 32.4425 57 28.5 57Z" fill="#1B8514"/>
</svg>
