<?xml version="1.0" encoding="UTF-8" standalone="no"?>
<svg
   width="121.75964"
   height="77.000603"
   viewBox="0 0 121.75964 77.000603"
   fill="none"
   version="1.1"
   id="svg150"
   sodipodi:docname="whyus_1.svg"
   inkscape:version="1.2.2 (b0a84865, 2022-12-01)"
   xmlns:inkscape="http://www.inkscape.org/namespaces/inkscape"
   xmlns:sodipodi="http://sodipodi.sourceforge.net/DTD/sodipodi-0.dtd"
   xmlns="http://www.w3.org/2000/svg"
   xmlns:svg="http://www.w3.org/2000/svg">
  <defs
     id="defs154" />
  <sodipodi:namedview
     id="namedview152"
     pagecolor="#ffffff"
     bordercolor="#999999"
     borderopacity="1"
     inkscape:showpageshadow="0"
     inkscape:pageopacity="0"
     inkscape:pagecheckerboard="0"
     inkscape:deskcolor="#d1d1d1"
     showgrid="false"
     inkscape:zoom="1.6978417"
     inkscape:cx="60.959746"
     inkscape:cy="38.57839"
     inkscape:window-width="1280"
     inkscape:window-height="771"
     inkscape:window-x="0"
     inkscape:window-y="33"
     inkscape:window-maximized="0"
     inkscape:current-layer="svg150" />
  <circle
     cx="32.126709"
     cy="14.1329"
     r="14.1329"
     fill="#bca1ff"
     id="circle134" />
  <rect
     x="17.993807"
     y="30.703201"
     width="28.2658"
     height="46.297401"
     rx="5"
     fill="#bca1ff"
     id="rect136" />
  <path
     d="m 16.288606,34.6016 c 2.4369,-3.6553 3.8987,-4.0612 5.3608,-3.655 l -2.6802,18.2753 c -3.1677,5.5232 -9.6493998,16.862 -10.2341998,18.0316 -0.731,1.462 -3.4116,3.1675 -6.8229,1.462 -2.72920003,-1.3645 -1.94940003,-4.9546 -1.21840003,-6.5791 z"
     fill="#bca1ff"
     id="path138" />
  <path
     d="m 48.033106,34.9611 c -2.5782,-3.645 -4.1248,-4.0498 -5.6716,-3.6448 l 2.8356,18.2239 c 3.3514,5.5077 10.209,16.8145 10.8277,17.9808 0.7734,1.458 3.6095,3.159 7.2187,1.458 2.8874,-1.3608 2.0625,-4.9407 1.289,-6.5606 z"
     fill="#bca1ff"
     id="path140" />
  <circle
     cx="88.62001"
     cy="14.1329"
     r="14.1329"
     fill="#bca1ff"
     id="circle142" />
  <rect
     x="74.486908"
     y="30.703201"
     width="28.2658"
     height="46.297401"
     rx="5"
     fill="#bca1ff"
     id="rect144" />
  <path
     d="m 72.781806,34.6016 c 2.4369,-3.6553 3.8982,-4.0612 5.3612,-3.655 l -2.6807,18.2753 c -3.1677,5.5232 -9.6493,16.862 -10.2341,18.0316 -0.731,1.462 -3.4116,3.1675 -6.823,1.462 -2.7291,-1.3645 -1.9493,-4.9546 -1.2183,-6.5791 z"
     fill="#bca1ff"
     id="path146" />
  <path
     d="m 104.52601,34.9611 c -2.578,-3.645 -4.125,-4.0498 -5.671004,-3.6448 l 2.835004,18.2239 c 3.352,5.5077 10.209,16.8145 10.828,17.9808 0.773,1.458 3.609,3.159 7.219,1.458 2.887,-1.3608 2.062,-4.9407 1.289,-6.5606 z"
     fill="#bca1ff"
     id="path148" />
</svg>
