<?xml version="1.0" encoding="UTF-8" standalone="no"?>
<svg
   width="221.99977"
   height="74.000175"
   viewBox="0 0 221.99977 74.000175"
   fill="none"
   version="1.1"
   id="svg301"
   sodipodi:docname="whyus_2.svg"
   inkscape:version="1.2.2 (b0a84865, 2022-12-01)"
   xmlns:inkscape="http://www.inkscape.org/namespaces/inkscape"
   xmlns:sodipodi="http://sodipodi.sourceforge.net/DTD/sodipodi-0.dtd"
   xmlns="http://www.w3.org/2000/svg"
   xmlns:svg="http://www.w3.org/2000/svg">
  <defs
     id="defs305" />
  <sodipodi:namedview
     id="namedview303"
     pagecolor="#ffffff"
     bordercolor="#999999"
     borderopacity="1"
     inkscape:showpageshadow="0"
     inkscape:pageopacity="0"
     inkscape:pagecheckerboard="0"
     inkscape:deskcolor="#d1d1d1"
     showgrid="false"
     inkscape:zoom="1.6978417"
     inkscape:cx="105.42797"
     inkscape:cy="36.811441"
     inkscape:window-width="1280"
     inkscape:window-height="771"
     inkscape:window-x="0"
     inkscape:window-y="33"
     inkscape:window-maximized="0"
     inkscape:current-layer="svg301" />
  <path
     d="m 23.011495,45.9678 h -8.3131 l 2.934,27.3842 c 0.7824,1.174 1.956,0.489 2.445,0 z"
     fill="#bca1ff"
     id="path275" />
  <rect
     x="11.276194"
     y="39.120499"
     width="15.6482"
     height="4.89007"
     fill="#bca1ff"
     id="rect277" />
  <path
     d="m 32.300795,22.9833 c -7.0417,4.3033 -9.7801,10.9212 -10.2691,13.6922 17.213,0.3912 20.2122,-14.8332 19.5602,-22.4943 -0.489,2.934 -0.489,3.423 -9.2911,8.8021 z"
     fill="#bca1ff"
     id="path279"
     style="stroke:none" />
  <path
     d="m 35.723895,19.0713 c -12.1274,3.5208 -15.4852,12.8771 -15.6482,17.1152 -2.4451,-5.8681 -1.4671,-14.6702 3.423,-18.5823 3.9121,-3.1296 8.1501,-8.8021 9.7801,-11.2471 2.3473,2.3472 2.6081,9.4541 2.4451,12.7142 z"
     fill="#bca1ff"
     id="path281"
     style="stroke:none" />
  <path
     d="m 26.431795,12.2252 c -12.1281,8.2153 -10.9214,19.7232 -8.8021,24.4503 -13.2038005,-9.2911 -7.3345,-18.5823 -4.8895,-21.5163 1.9561,-2.3472 7.9874,-11.0841 10.7585,-15.1592 2.3475,3.9121 2.9335,9.7801 2.9331,12.2252 z"
     fill="#bca1ff"
     id="path283"
     style="stroke:none" />
  <path
     d="m 10.294695,15.1592 c -7.8247005,10.1713 -0.3262005,18.9083 4.4011,22.0053 -10.2706005,0 -18.0918005,-8.3131 -13.2017005,-16.6262 3.912,-6.6505 5.8681,-11.2472 6.3571,-12.7142 1.1736,2.3472 2.118,5.8681 2.4435005,7.3351 z"
     fill="#bca1ff"
     id="path285"
     style="stroke:none" />
  <path
     d="m 32.300795,22.9833 c -7.0417,4.3033 -9.7801,10.9212 -10.2691,13.6922 17.213,0.3912 20.2122,-14.8332 19.5602,-22.4943 -0.489,2.934 -0.489,3.423 -9.2911,8.8021 z"
     stroke="black"
     id="path287"
     style="stroke:none" />
  <path
     d="m 35.723895,19.0713 c -12.1274,3.5208 -15.4852,12.8771 -15.6482,17.1152 -2.4451,-5.8681 -1.4671,-14.6702 3.423,-18.5823 3.9121,-3.1296 8.1501,-8.8021 9.7801,-11.2471 2.3473,2.3472 2.6081,9.4541 2.4451,12.7142 z"
     stroke="black"
     id="path289"
     style="stroke:none" />
  <path
     d="m 26.431795,12.2252 c -12.1281,8.2153 -10.9214,19.7232 -8.8021,24.4503 -13.2038005,-9.2911 -7.3345,-18.5823 -4.8895,-21.5163 1.9561,-2.3472 7.9874,-11.0841 10.7585,-15.1592 2.3475,3.9121 2.9335,9.7801 2.9331,12.2252 z"
     stroke="black"
     id="path291"
     style="stroke:none" />
  <path
     d="m 10.294695,15.1592 c -7.8247005,10.1713 -0.3262005,18.9083 4.4011,22.0053 -10.2706005,0 -18.0918005,-8.3131 -13.2017005,-16.6262 3.912,-6.6505 5.8681,-11.2472 6.3571,-12.7142 1.1736,2.3472 2.118,5.8681 2.4435005,7.3351 z"
     stroke="black"
     id="path293"
     style="stroke:none" />
  <path
     d="M 66.999995,68.629 V 15 h 10.563 L 102.20899,47.7229 V 15 h 11.443 v 53.629 h -9.683 L 78.882995,34.5428 V 68.629 Z"
     fill="#bca1ff"
     id="path295" />
  <path
     d="M 139.61799,47.2684 119.81299,15 h 12.763 l 12.763,21.8153 L 158.10299,15 h 12.763 l -19.805,32.2684 V 68.629 h -11.443 z"
     fill="#bca1ff"
     id="path297" />
  <path
     d="m 176.14699,50.4498 c -1.32,-6.6658 0,-35.4498 0,-35.4498 h 11.443 c 0,0 -1.027,32.7229 0,35.4498 1.027,2.7269 4.753,8.1807 11.443,8.1807 6.689,0 10.122,-5.4538 11.003,-8.1807 0.88,-2.7269 0,-35.4498 0,-35.4498 h 11.442 c 0,0 1.174,29.087 0,35.4498 -1.173,6.3628 -7.305,19.1792 -22.445,19.5432 -15.14,0.363 -21.566,-12.8774 -22.886,-19.5432 z"
     fill="#bca1ff"
     id="path299" />
</svg>
