<svg width="37" height="37" viewBox="0 0 37 37" fill="none" xmlns="http://www.w3.org/2000/svg">
<path d="M18.4 23.9L6.7326 35.6C5.995 36.3333 5.05623 36.7 3.9163 36.7C2.77637 36.7 1.8376 36.3333 1.1 35.6C0.366667 34.8667 0 33.9333 0 32.8C0 31.6667 0.366667 30.7333 1.1 30L12.8 18.3L1.1 6.7328C0.366667 5.99513 0 5.05633 0 3.9164C0 2.7764 0.366667 1.8376 1.1 1.1C1.83333 0.366667 2.76667 0 3.9 0C5.03333 0 5.96667 0.366667 6.7 1.1L18.4 12.8L29.9672 1.1C30.7049 0.366667 31.6437 0 32.7836 0C33.9236 0 34.8624 0.366667 35.6 1.1C36.4 1.9 36.8 2.85 36.8 3.95C36.8 5.05 36.4 5.96667 35.6 6.7L23.9 18.3L35.6 29.9674C36.3333 30.705 36.7 31.6438 36.7 32.7837C36.7 33.9236 36.3333 34.8624 35.6 35.6C34.8 36.4 33.85 36.8 32.75 36.8C31.65 36.8 30.7333 36.4 30 35.6L18.4 23.9Z" fill="black"/>
</svg>
