<?xml version="1.0" encoding="UTF-8" standalone="no"?>
<svg
   width="36.524338"
   height="18.26215"
   viewBox="0 0 36.524338 18.26215"
   fill="none"
   version="1.1"
   id="svg388"
   sodipodi:docname="portfolio.svg"
   inkscape:version="1.2.2 (b0a84865, 2022-12-01)"
   xmlns:inkscape="http://www.inkscape.org/namespaces/inkscape"
   xmlns:sodipodi="http://sodipodi.sourceforge.net/DTD/sodipodi-0.dtd"
   xmlns="http://www.w3.org/2000/svg"
   xmlns:svg="http://www.w3.org/2000/svg">
  <defs
     id="defs392" />
  <sodipodi:namedview
     id="namedview390"
     pagecolor="#ffffff"
     bordercolor="#999999"
     borderopacity="1"
     inkscape:showpageshadow="0"
     inkscape:pageopacity="0"
     inkscape:pagecheckerboard="0"
     inkscape:deskcolor="#d1d1d1"
     showgrid="false"
     inkscape:zoom="11.8"
     inkscape:cx="18.516949"
     inkscape:cy="9.1525424"
     inkscape:window-width="1280"
     inkscape:window-height="430"
     inkscape:window-x="26"
     inkscape:window-y="210"
     inkscape:window-maximized="0"
     inkscape:current-layer="svg388" />
  <path
     d="m 3.469808,9.13108 c 0,-3.12283 2.53844,-5.66127 5.66127,-5.66127 h 5.56996 c 0.9582,0 1.7349,-0.77674 1.7349,-1.73491 0,-0.95816 -0.7767,-1.7349 -1.7349,-1.7349 H 9.131078 C 4.090728,0 0,4.09072 0,9.13108 c 0,5.04037 4.090728,9.13107 9.131078,9.13107 h 5.56996 c 0.9582,0 1.7349,-0.7767 1.7349,-1.7349 0,-0.9582 -0.7767,-1.7349 -1.7349,-1.7349 h -5.56996 c -3.12283,0 -5.66127,-2.5384 -5.66127,-5.66127 z m 7.48753,0 c 0,1.00857 0.8176,1.82617 1.8262,1.82617 h 10.9573 c 1.0086,0 1.8262,-0.8176 1.8262,-1.82617 0,-1.00859 -0.8176,-1.82622 -1.8262,-1.82622 h -10.9573 c -1.0086,0 -1.8262,0.81763 -1.8262,1.82622 z M 27.393238,0 h -5.57 c -0.9581,0 -1.7349,0.77674 -1.7349,1.7349 0,0.95817 0.7768,1.73491 1.7349,1.73491 h 5.57 c 3.1228,0 5.6613,2.53844 5.6613,5.66127 0,3.12287 -2.5385,5.66127 -5.6613,5.66127 h -5.57 c -0.9581,0 -1.7349,0.7767 -1.7349,1.7349 0,0.9582 0.7768,1.7349 1.7349,1.7349 h 5.57 c 5.0404,0 9.1311,-4.0907 9.1311,-9.13107 C 36.524338,4.09072 32.433638,0 27.393238,0 Z"
     fill="#7139ff"
     id="path386" />
</svg>
